Coordinates
version=1
nRows=54
nColumns=12
inDegrees=yes

Units are S.I. units (second, meters, Newtons, ...)
Angles are in degrees

endheader
time	SC_y	SC_z	SC_x	AC_y	AC_z	AC_x	GH_y	GH_z	GH_yy	EL_x	PS_y
       0.0              -46.19          14.07          27.44          56.09         -2.717          3.511          84.13          24.25         -1.781          80.13          132.0
  0.007329              -46.19          14.07          27.45          56.09         -2.716          3.511          84.11          24.25         -1.762          80.12          132.0
   0.01466              -46.18          14.07          27.46          56.09         -2.715          3.511          84.09          24.25         -1.743          80.11          132.0
   0.02199              -46.18          14.07          27.47          56.09         -2.713          3.511          84.07          24.25         -1.722           80.1          132.0
   0.02932              -46.18          14.07          27.48          56.09         -2.712          3.512          84.04          24.25           -1.7          80.09          132.0
   0.03665              -46.17          14.08          27.49           56.1         -2.711          3.512          84.02          24.25         -1.677          80.08          132.0
   0.04398              -46.17          14.08           27.5           56.1          -2.71          3.512          83.99          24.25         -1.651          80.06          132.0
   0.05131              -46.16          14.08          27.51           56.1         -2.708          3.512          83.96          24.25         -1.625          80.05          132.0
   0.05864              -46.15          14.08          27.53           56.1         -2.707          3.513          83.93          24.25         -1.596          80.04          132.0
   0.06596              -46.15          14.08          27.54           56.1         -2.705          3.513          83.89          24.25         -1.565          80.02          132.0
   0.07329              -46.14          14.09          27.56           56.1         -2.703          3.513          83.86          24.25         -1.532           80.0          132.0
   0.08062              -46.13          14.09          27.57           56.1         -2.702          3.513          83.82          24.26         -1.496          79.98          132.0
   0.08795              -46.13          14.09          27.59           56.1           -2.7          3.514          83.77          24.26         -1.458          79.96          132.0
   0.09528              -46.12           14.1          27.61           56.1         -2.697          3.514          83.73          24.26         -1.416          79.94          132.0
    0.1026              -46.11           14.1          27.63           56.1         -2.695          3.514          83.68          24.26         -1.371          79.92          132.0
    0.1099               -46.1           14.1          27.65           56.1         -2.692          3.515          83.62          24.26         -1.323          79.89          132.0
    0.1173              -46.09          14.11          27.67           56.1          -2.69          3.515          83.56          24.26          -1.27          79.86          132.0
    0.1246              -46.07          14.11           27.7           56.1         -2.687          3.516           83.5          24.27         -1.212          79.83          132.0
    0.1319              -46.06          14.12          27.73           56.1         -2.683          3.516          83.43          24.27         -1.149           79.8          132.0
    0.1393              -46.05          14.12          27.76           56.1          -2.68          3.517          83.35          24.27          -1.08          79.76          132.0
    0.1466              -46.03          14.13          27.79          56.11         -2.676          3.518          83.27          24.27         -1.004          79.72          132.0
    0.1539              -46.01          14.13          27.83          56.11         -2.671          3.518          83.17          24.27         -0.921          79.68          132.0
    0.1612               -46.0          14.14          27.87          56.11         -2.666          3.519          83.07          24.28         -0.829          79.63          132.0
    0.1686              -45.97          14.15          27.92          56.11         -2.661           3.52          82.95          24.28         -0.727          79.57          131.9
    0.1759              -45.95          14.15          27.97          56.11         -2.655          3.521          82.83          24.28        -0.6136          79.51          131.9
    0.1832              -45.93          14.16          28.03          56.11         -2.648          3.522          82.69          24.29        -0.4871          79.45          131.9
    0.1906               -45.9          14.17          28.09          56.11         -2.641          3.523          82.53          24.29        -0.3453          79.37          131.9
    0.1979              -45.86          14.19          28.16          56.12         -2.632          3.524          82.35           24.3        -0.1859          79.29          131.9
    0.2052              -45.83           14.2          28.24          56.12         -2.623          3.526          82.15           24.3      -0.005755          79.19          131.9
    0.2126              -45.78          14.21          28.33          56.12         -2.612          3.528          81.92          24.31         0.1988          79.08          131.9
    0.2199              -45.74          14.23          28.44          56.13           -2.6           3.53          81.66          24.32         0.4323          78.96          131.8
    0.2272              -45.68          14.25          28.56          56.13         -2.585          3.532          81.36          24.33         0.7002          78.82          131.8
    0.2345              -45.62          14.27           28.7          56.13         -2.569          3.534          81.01          24.34           1.01          78.65          131.8
    0.2419              -45.54           14.3          28.86          56.14          -2.55          3.538          80.61          24.35          1.369          78.46          131.7
    0.2492              -45.46          14.33          29.05          56.15         -2.528          3.541          80.14          24.36          1.789          78.24          131.7
    0.2565              -45.35          14.37          29.27          56.15         -2.502          3.545          79.58          24.38          2.285          77.97          131.7
    0.2639              -45.23          14.41          29.54          56.16         -2.471           3.55          78.92           24.4          2.874          77.66          131.6
    0.2712              -45.09          14.46          29.86          56.17         -2.433          3.556          78.13          24.42          3.581          77.29          131.5
    0.2785              -44.91          14.53          30.24          56.18         -2.388          3.563          77.18          24.45          4.435          76.83          131.5
    0.2858               -44.7           14.6          30.71           56.2         -2.333          3.572          76.01          24.48          5.479          76.28          131.4
    0.2932              -44.43           14.7          31.29          56.22         -2.265          3.583          74.56          24.52          6.767           75.6          131.2
    0.3005               -44.1          14.81          32.02          56.24          -2.18          3.597          72.77          24.57          8.373          74.74          131.1
    0.3078              -43.68          14.96          32.93          56.27         -2.073          3.614           70.5          24.64           10.4          73.67          130.9
    0.3152              -43.15          15.15          34.09          56.31         -1.937          3.635          67.62          24.72          12.97           72.3          130.6
    0.3225              -42.48          15.39          35.57          56.36         -1.763          3.663          63.94          24.83          16.26          70.55          130.3
    0.3298               -41.6           15.7          37.47          56.42          -1.54          3.699           59.2          24.96          20.49          68.31          129.9
    0.3372              -40.49           16.1           39.9           56.5         -1.255          3.744          53.16          25.14          25.88          65.45          129.4
    0.3445               -39.1           16.6          42.96          56.59        -0.8963          3.801          45.57          25.36          32.67          61.84          128.7
    0.3518              -37.39          17.21          46.68          56.71        -0.4593          3.871          36.31          25.62          40.94          57.45          128.0
    0.3591              -35.42          17.91           51.0          56.85        0.04719          3.952          25.57          25.93          50.53          52.36          127.0
    0.3665              -33.28          18.67          55.67           57.0         0.5956          4.039          13.95          26.27          60.91          46.85          126.0
    0.3738              -31.14          19.44          60.35          57.16          1.144          4.127          2.334           26.6          71.29          41.34          125.1
    0.3811              -29.17          20.14          64.67          57.29          1.651          4.207         -8.397          26.91          80.87          36.25          124.1
    0.3885              -27.46          20.75          68.39          57.41          2.087          4.277         -17.66          27.18          89.14          31.86          123.3
